<svg id="Line" height="512" viewBox="0 0 64 64" width="512" xmlns="http://www.w3.org/2000/svg"><path d="m60.99 25.169-2.3-1.3.69-1.122a2.9 2.9 0 0 0 -.88-3.958 2.96 2.96 0 0 0 -3.88.545l-1.27 1.5-11.36-6.434a3.011 3.011 0 0 0 -2.98 0l-19 10.774a2.976 2.976 0 0 0 -1.51 2.58v21.51a2.975 2.975 0 0 0 1.51 2.579l19 10.775a3.064 3.064 0 0 0 2.98 0l19-10.775a2.975 2.975 0 0 0 1.51-2.579v-21.515a2.976 2.976 0 0 0 -1.51-2.58zm-4.84-4.554a.947.947 0 0 1 1.24-.178.933.933 0 0 1 .28 1.27l-15.15 24.526a3.013 3.013 0 0 1 -4.84.387l-6.41-7.432a2.711 2.711 0 0 1 3.51-4.048l3.72 2.3a3.037 3.037 0 0 0 3.88-.6z" fill="#c4a2fc"/><g fill="#151a6a"><path d="m23.814 9.038a1 1 0 0 0 -.69 1.234 10 10 0 1 1 -9.624-7.272 9.916 9.916 0 0 1 4.171.909 1 1 0 1 0 .835-1.818 12 12 0 1 0 6.994 10.909 12.025 12.025 0 0 0 -.452-3.272 1 1 0 0 0 -1.234-.69z"/><path d="m9.268 11.36a1 1 0 0 0 -1.536 1.28l5 6a1 1 0 0 0 1.6-.085l10-15a1 1 0 0 0 -1.664-1.11l-9.257 13.886z"/><path d="m23.814 35.038a1 1 0 0 0 -.69 1.234 10 10 0 1 1 -9.624-7.272 9.916 9.916 0 0 1 4.171.909 1 1 0 1 0 .835-1.818 12 12 0 1 0 6.994 10.909 12.025 12.025 0 0 0 -.452-3.272 1 1 0 0 0 -1.234-.69z"/><path d="m9.268 37.36a1 1 0 0 0 -1.536 1.28l5 6a1 1 0 0 0 1.6-.085l10-15a1 1 0 0 0 -1.664-1.11l-9.257 13.886z"/><path d="m30.5 10h20a1 1 0 0 0 0-2h-20a1 1 0 0 0 0 2z"/><path d="m50.5 16h-20a1 1 0 0 0 0 2h20a1 1 0 0 0 0-2z"/><path d="m50.5 34h-20a1 1 0 0 0 0 2h20a1 1 0 0 0 0-2z"/><path d="m50.5 42h-20a1 1 0 0 0 0 2h20a1 1 0 0 0 0-2z"/></g></svg>